# xmcd
#
# Track frame offsets:
#	150
#	18675
#	37152
#	53658
#	69719
#	88920
#	103895
#	122339
#	141237
#	158324
#	178116
#	197501
#	217745
#	237944
#	256219
#
# Disc length: 3630 seconds
#
# Revision: 0
# Processed by: cddbd v1.5.2PL0 Copyright (c) Steve Scherf et al.
# Submitted via: audiograbber 1.83.01
#
DISCID=ce0e2c0f
DTITLE=Chartbuster Karaoke - Essential 4 Disk 26
DYEAR=1900
DGENRE=Karaoke
TTITLE0=Kenny Chesney - Big Star
TTITLE1=Lonestar - Unusually Unusual
TTITLE2=Randy Travis - Three Wooden Crosses
TTITLE3=Mark Wills - Nineteen Somethin'
TTITLE4=Montgomery Gentry - Speed
TTITLE5=Phil Vassar - American Child
TTITLE6=Montgomery Gentry - She Couldn't Change Me
TTITLE7=Randy Travis - America Will Always Stand
TTITLE8=Rascal Flatts - These Days
TTITLE9=Tim McGraw - She's My Kind Of Rain
TTITLE10=Shannon Lawson - Goodbye On A Bad Day
TTITLE11=Steve Azar - Waitin' On Joe
TTITLE12=Tim McGraw - Red Ragtop
TTITLE13=Toby Keith - Rock You Baby
TTITLE14=Trace Adkins - Chrome
EXTD=
EXTT0=
EXTT1=
EXTT2=
EXTT3=
EXTT4=
EXTT5=
EXTT6=
EXTT7=
EXTT8=
EXTT9=
EXTT10=
EXTT11=
EXTT12=
EXTT13=
EXTT14=
PLAYORDER=
